# xmcd
#
# Track frame offsets:
#	150
#	19672
#	40715
#	56007
#	77612
#	97982
#	119085
#	141790
#	159610
#	174815
#	193402
#	240937
#
# Disc length: 4305 seconds
#
# Revision: 0
# Processed by: cddbd v1.4PL0 Copyright (c) Steve Scherf et al.
# Submitted via: dBpowerAMP V4.0
#
DISCID=9410cf0c
DTITLE=Backsliders - Southern Lines
DYEAR=1999
DGENRE=Country
TTITLE0=Abe Lincoln
TTITLE1=Never Be Your Darling
TTITLE2=Don't Ask Me Why
TTITLE3=It Rained On Monday
TTITLE4=Burning Bed
TTITLE5=Two Candles
TTITLE6=Angelita
TTITLE7=Cross Your Heart
TTITLE8=The Lonely One
TTITLE9=Forever Came Today
TTITLE10=Psychic Friend
TTITLE11=DATA
EXTD=
EXTT0=
EXTT1=
EXTT2=
EXTT3=
EXTT4=
EXTT5=
EXTT6=
EXTT7=
EXTT8=
EXTT9=
EXTT10=
EXTT11=
PLAYORDER=
